<?xml version="1.0" encoding="iso-8859-1"?>
<!-- Generator: Adobe Illustrator 19.0.0, SVG Export Plug-In . SVG Version: 6.00 Build 0)  -->
<svg version="1.1" id="Capa_1" xmlns="http://www.w3.org/2000/svg" xmlns:xlink="http://www.w3.org/1999/xlink" x="0px" y="0px"
	 viewBox="0 0 512 512" style="enable-background:new 0 0 512 512;" xml:space="preserve">
<path style="fill:#333940;" d="M258.435,9.235c-89.327,0-162,72.991-162,162.709V350c0,8.284,6.716,15,15,15h46
	c8.284,0,15-6.716,15-15V175.021c0-47.435,38.58-86.026,86-86.026c8.284,0,15-6.716,15-15v-49.76
	C273.435,15.951,266.719,9.235,258.435,9.235z"/>
<path style="fill:#636978;" d="M229.935,11.766c-75.783,13.565-133.5,80.225-133.5,160.178V350c0,8.284,6.716,15,15,15h46
	c8.284,0,15-6.716,15-15V175.021c0-37.447,24.045-69.378,57.501-81.166L229.935,11.766z"/>
<path style="fill:#FFA547;" d="M440.173,146.5L348.25,50.755C345.422,47.814,341.518,46,337.438,46h-15.003V15
	c0-8.284-6.938-15-15.222-15c-33.735,0-61.7,26.602-63.365,59.953c-56.947,7.352-101.413,56.153-101.413,115.069v174.624
	c0,8.284,7.145,15.354,15.429,15.354h177.731c5.206,0,10.039-2.876,12.77-7.308c2.731-4.431,2.97-10.05,0.63-14.7l-42.036-83.589
	c22.118,1.797,44.149-6.491,59.638-22.82c23.408,14.862,54.395,11.283,73.793-9.109C462.041,204.716,461.945,169.142,440.173,146.5z
	"/>
<path style="fill:#FFD15E;" d="M229.933,62.625C179.82,75.482,142.435,121,142.435,175.021v174.624
	c0,8.284,7.145,15.354,15.429,15.354h72.071L229.933,62.625z"/>
<path style="fill:#333940;" d="M330.82,152.096h-8.281c-8.284,0-15-6.716-15-15s6.716-15,15-15h8.281c8.284,0,15,6.716,15,15
	S339.104,152.096,330.82,152.096z"/>
<path style="fill:#DCE1EB;" d="M376.435,356c0-8.284-6.716-15-15-15h-263c-8.284,0-15,6.716-15,15v49c0,8.284,6.716,15,15,15h263
	c8.284,0,15-6.716,15-15V356z"/>
<path style="fill:#EBF0FA;" d="M229.935,341h-131.5c-8.284,0-15,6.716-15,15v49c0,8.284,6.716,15,15,15h131.5V341z"/>
<path style="fill:#333940;" d="M403.435,403c0-8.284-6.716-15-15-15h-318c-8.284,0-15,6.716-15,15v94c0,8.284,6.716,15,15,15h318
	c8.284,0,15-6.716,15-15V403z"/>
<path style="fill:#636978;" d="M229.935,388h-159.5c-8.284,0-15,6.716-15,15v94c0,8.284,6.716,15,15,15h159.5V388z"/>
<g>
</g>
<g>
</g>
<g>
</g>
<g>
</g>
<g>
</g>
<g>
</g>
<g>
</g>
<g>
</g>
<g>
</g>
<g>
</g>
<g>
</g>
<g>
</g>
<g>
</g>
<g>
</g>
<g>
</g>
</svg>
