<?xml version="1.0" encoding="iso-8859-1"?>
<!-- Generator: Adobe Illustrator 19.0.0, SVG Export Plug-In . SVG Version: 6.00 Build 0)  -->
<svg version="1.1" id="Capa_1" xmlns="http://www.w3.org/2000/svg" xmlns:xlink="http://www.w3.org/1999/xlink" x="0px" y="0px"
	 viewBox="0 0 511.999 511.999" style="enable-background:new 0 0 511.999 511.999;" xml:space="preserve">
<g>
	<path style="fill:#F57C00;" d="M184.48,382.878l-0.426,1.11h-28.846c-9.222-0.002-18.394,1.349-27.224,4.011
		c29.613-35.331,21.763-45.402,21.763-73.479c1.155-20.561,6.994-40.584,17.068-58.545c0.015,0.743,0.072,1.483,0.171,2.219
		c0.175,1.988,0.517,3.958,1.025,5.888c0.205,1.016,0.491,2.015,0.854,2.987c0.237,0.879,0.552,1.736,0.939,2.56
		c0.253,0.859,0.596,1.688,1.025,2.474c0.282,0.862,0.654,1.691,1.11,2.474c0.797,1.693,1.68,3.346,2.646,4.95
		c0.94,1.622,1.963,3.243,3.073,4.864c0.768,1.195,1.622,2.474,2.474,3.67c1.536,2.048,3.158,4.096,4.779,6.145
		c2.199,9.718,3.88,19.546,5.035,29.443C192.332,343.706,192.844,368.029,184.48,382.878z"/>
	<path style="fill:#F57C00;" d="M376.328,387.998c-8.829-2.661-18.002-4.013-27.224-4.011h-28.846l-0.426-1.11
		c-8.364-14.85-7.852-39.171-5.462-59.227c1.155-9.897,2.836-19.725,5.035-29.443c9.984-10.468,16.328-23.875,18.092-38.233
		c10.075,17.96,15.913,37.984,17.068,58.545C354.566,342.597,346.714,352.667,376.328,387.998z"/>
</g>
<path d="M131.819,396.534c-4.712-0.002-8.53-3.824-8.528-8.536c0.001-2.004,0.707-3.943,1.994-5.479
	c21.919-26.156,21.344-35.832,20.311-53.405c-0.267-4.413-0.541-9.18-0.541-14.598c1.133-22.076,7.372-43.587,18.227-62.843
	c2.38-4.069,7.609-5.438,11.678-3.057c4.058,2.374,5.432,7.583,3.074,11.65c-9.301,16.663-14.739,35.204-15.909,54.251
	c0,5.042,0.267,9.484,0.508,13.588c1.284,21.731,0.791,35.479-24.261,65.373C136.747,395.42,134.347,396.539,131.819,396.534z"/>
<path d="M380.175,396.534c-2.528,0.004-4.929-1.115-6.551-3.054c-25.052-29.894-25.544-43.641-24.261-65.373
	c0.242-4.105,0.508-8.546,0.508-13.588c-1.145-19.05-6.583-37.593-15.909-54.243c-2.375-4.074-0.999-9.301,3.075-11.676
	s9.301-0.999,11.676,3.075l0,0c10.855,19.256,17.094,40.769,18.227,62.844c0,5.418-0.275,10.184-0.541,14.598
	c-1.033,17.573-1.608,27.249,20.311,53.405c3.027,3.611,2.555,8.992-1.056,12.019C384.118,395.828,382.178,396.533,380.175,396.534z
	"/>
<path style="fill:#6A1B9A;" d="M437.432,503.465H74.561c-9.439,0.008-17.097-7.637-17.105-17.076
	c-0.001-1.764,0.27-3.518,0.805-5.199l11.265-35.16c9.311-24.789,28.463-44.62,52.911-54.789
	c10.425-4.271,21.515-6.696,32.771-7.169l158.223-0.085h39.513c1.28,0,2.56,0,3.84,0.085c24.013,0.915,46.789,10.885,63.75,27.907
	c9.647,9.664,17.123,21.272,21.933,34.052l11.267,35.16c2.863,8.994-2.107,18.606-11.102,21.469
	C440.95,503.195,439.197,503.466,437.432,503.465z"/>
<path style="fill:#9D27B0;" d="M400.992,503.465H74.561c-9.439,0.008-17.097-7.637-17.105-17.076
	c-0.001-1.764,0.27-3.518,0.805-5.199l11.265-35.16c9.311-24.789,28.463-44.62,52.911-54.789
	c10.425-4.271,21.515-6.696,32.771-7.169l158.223-0.085h3.755c1.024,0,2.133,0,3.158,0.085c24.013,0.915,46.789,10.885,63.75,27.907
	c9.647,9.664,17.123,21.272,21.933,34.052l11.265,35.16c2.862,8.994-2.108,18.607-11.103,21.469
	C404.508,503.195,402.756,503.466,400.992,503.465z"/>
<path style="fill:#FEC108;" d="M349.872,156.126c-0.025,6.456-0.886,12.881-2.56,19.117c0,0.085-0.085,0.256-0.085,0.341
	c-6.47,23.892-8.552,48.759-6.145,73.393c0.171,2.048,0.256,4.181,0.256,6.316c-0.118,5.726-1.426,11.363-3.84,16.556
	c-3.718,8.063-8.512,15.585-14.252,22.36c-10.611,12.501-22.448,23.908-35.331,34.052c-3.906,3.187-8.281,5.749-12.971,7.595
	c-1.716,0.752-3.484,1.38-5.291,1.877c-6.582,1.801-13.454,2.294-20.226,1.451c-0.939-0.171-1.963-0.341-2.902-0.512
	c-1.126-0.174-2.239-0.431-3.328-0.768c-1.537-0.353-3.048-0.809-4.524-1.366h-0.085c-1.11-0.426-2.133-0.853-3.158-1.28
	c-0.085-0.085-0.085-0.085-0.171-0.085c-0.25-0.061-0.483-0.177-0.682-0.341c-0.837-0.312-1.639-0.712-2.389-1.195
	c-0.821-0.359-1.595-0.817-2.304-1.366c-0.96-0.516-1.874-1.117-2.731-1.792c-1.064-0.683-2.09-1.424-3.073-2.219
	c-2.987-2.389-5.973-4.95-9.046-7.595l-4.609-4.096c-1.025-0.853-2.048-1.792-2.987-2.731c-6.684-6.096-12.929-12.654-18.69-19.628
	c-1.025-1.28-2.048-2.475-2.987-3.755c-0.257-0.39-0.542-0.76-0.853-1.11c-0.171-0.256-0.341-0.426-0.512-0.682
	c-1.025-1.451-1.963-2.817-2.902-4.267c-1.11-1.621-2.133-3.242-3.073-4.864c-0.065-0.154-0.151-0.297-0.256-0.426
	c-0.853-1.536-1.707-2.987-2.389-4.524c-0.455-0.784-0.828-1.614-1.11-2.474c-0.428-0.786-0.772-1.616-1.025-2.474
	c-0.171-0.186-0.262-0.43-0.256-0.682c-0.265-0.612-0.494-1.238-0.682-1.877c-1.326-3.786-2.019-7.765-2.048-11.778
	c0-2.133,0.085-4.267,0.256-6.316c2.422-24.752,0.31-49.739-6.23-73.735c-1.675-6.235-2.535-12.66-2.56-19.117
	c-0.034-3.719,0.281-7.434,0.939-11.094c3.198-19.208,13.417-36.545,28.674-48.645h128.524
	C338.666,110.789,349.556,132.756,349.872,156.126z"/>
<path style="fill:#FFECB3;" d="M324.27,156.126c-0.025,6.456-0.886,12.881-2.56,19.117c0,0.085-0.085,0.256-0.085,0.341
	c-6.47,23.892-8.552,48.759-6.145,73.393c0.171,2.048,0.256,4.181,0.256,6.316c0,24.578-29.187,53.339-53.424,72.967
	c-5.57,4.605-12.102,7.9-19.116,9.644c-1.534-0.365-3.044-0.82-4.524-1.366h-0.085c-1.11-0.426-2.133-0.853-3.158-1.28
	c-0.085-0.085-0.085-0.085-0.171-0.085c-0.25-0.061-0.483-0.177-0.682-0.341c-0.837-0.312-1.639-0.712-2.389-1.195
	c-0.821-0.359-1.595-0.817-2.304-1.366c-0.96-0.516-1.874-1.117-2.731-1.792c-1.064-0.683-2.09-1.424-3.073-2.219
	c-2.987-2.389-5.973-4.95-9.046-7.595l-4.609-4.096c-1.025-0.939-1.963-1.792-2.987-2.731c-6.684-6.096-12.929-12.654-18.69-19.628
	c-1.025-1.28-2.048-2.475-2.987-3.755c-0.257-0.39-0.542-0.76-0.853-1.11c-0.171-0.256-0.341-0.426-0.512-0.682
	c-1.025-1.451-1.963-2.817-2.902-4.267c-1.11-1.621-2.133-3.242-3.073-4.864c-0.065-0.154-0.151-0.297-0.256-0.426
	c-0.853-1.536-1.707-2.987-2.389-4.524c-0.455-0.784-0.828-1.614-1.11-2.474c-0.428-0.786-0.772-1.616-1.025-2.474
	c-0.171-0.186-0.262-0.43-0.256-0.682c-0.265-0.612-0.494-1.238-0.682-1.877c-1.326-3.786-2.019-7.765-2.048-11.778
	c0-2.133,0.085-4.267,0.256-6.316c2.422-24.752,0.31-49.739-6.23-73.735c-1.675-6.235-2.535-12.66-2.56-19.117
	c-0.034-3.719,0.281-7.434,0.939-11.094c3.198-19.208,13.417-36.545,28.674-48.645h102.922
	C313.063,110.789,323.953,132.756,324.27,156.126z"/>
<g>
	<path style="fill:#FEC108;" d="M164.255,179.168c0,0-19.202-17.068-19.202,17.068s6.401,68.273,25.603,42.67"/>
	<path style="fill:#FEC108;" d="M347.739,179.168c0,0,19.202-17.068,19.202,17.068s-6.401,68.273-25.603,42.67"/>
	<path style="fill:#FEC108;" d="M341.338,393.375c0,12.204-10.668,23.213-27.736,30.723c-18.222,7.661-37.841,11.439-57.605,11.094
		c-47.108,0-85.341-18.775-85.341-41.817c0.024-3.256,0.782-6.465,2.219-9.387v-0.597h14.85l6.998-23.555
		c0.416-4.197,0.615-8.413,0.597-12.63c-0.071-7.817-0.583-15.624-1.536-23.383c-1.151-9.954-2.832-19.839-5.035-29.613
		c5.761,6.974,12.006,13.533,18.69,19.628c0.939,0.939,1.963,1.877,2.987,2.731l4.609,4.096c3.073,2.647,6.059,5.206,9.046,7.595
		c0.983,0.795,2.009,1.536,3.073,2.219c0.857,0.675,1.77,1.276,2.731,1.792c0.709,0.549,1.483,1.007,2.304,1.366
		c0.752,0.482,1.552,0.884,2.389,1.195c0.199,0.164,0.432,0.28,0.682,0.341c0.085,0,0.085,0,0.171,0.085
		c1.025,0.426,2.048,0.853,3.158,1.28h0.085c1.476,0.557,2.987,1.013,4.524,1.366c1.089,0.337,2.202,0.593,3.328,0.768
		c0.939,0.171,1.963,0.341,2.902,0.512c6.772,0.843,13.643,0.351,20.226-1.451c1.807-0.498,3.575-1.125,5.291-1.877
		c2.486-0.958,4.885-2.129,7.169-3.499c2.026-1.23,3.966-2.599,5.803-4.096c2.817-2.219,5.632-4.609,8.534-7.169
		c9.706-8.155,18.673-17.151,26.797-26.882c-2.203,9.775-3.884,19.659-5.035,29.613c-1.596,11.936-1.91,24.01-0.939,36.014
		l6.998,23.555h14.935v0.597C340.575,386.929,341.303,390.129,341.338,393.375z"/>
</g>
<path style="fill:#FFECB3;" d="M315.736,414.88c0.005,3.195-0.725,6.349-2.133,9.217c-18.222,7.661-37.841,11.439-57.605,11.094
	c-47.108,0-85.341-18.775-85.341-41.817c0.024-3.256,0.782-6.465,2.219-9.387v-0.597h14.85l6.998-23.555
	c0.416-4.197,0.615-8.413,0.597-12.63c1.11,0.853,2.133,1.707,3.158,2.56c0.983,0.795,2.009,1.536,3.073,2.219
	c0.857,0.675,1.77,1.275,2.731,1.792c0.709,0.549,1.483,1.007,2.304,1.366c0.752,0.482,1.552,0.883,2.389,1.195
	c0.199,0.164,0.432,0.28,0.682,0.341c0.085,0,0.085,0,0.171,0.085c1.025,0.426,2.048,0.853,3.158,1.28h0.085
	c1.476,0.556,2.987,1.012,4.524,1.366c1.089,0.337,2.202,0.593,3.328,0.768c0.939,0.171,1.963,0.341,2.902,0.512
	c6.772,0.843,13.643,0.351,20.226-1.451c1.807-0.498,3.575-1.125,5.291-1.877c4.691-1.846,9.067-4.409,12.971-7.595
	c6.486-5.206,13.314-11.094,19.799-17.41c5.507-5.23,10.694-10.787,15.532-16.642c-0.341,1.451-0.682,3.243-1.195,5.376
	c-1.195,6.145-2.731,14.678-3.84,24.237c-1.596,11.936-1.91,24.01-0.939,36.014l6.998,23.555h14.935v0.597
	C314.972,408.435,315.7,411.636,315.736,414.88z"/>
<path style="fill:#FFEB3A;" d="M349.872,503.465h-68.273l-25.603-24.152l-34.137-32.26l-66.651-62.982
	c1.28-0.085,2.56-0.085,3.84-0.085h3.073l32.601-24.493c0-0.426,0.085-0.768,0.085-1.195l1.451,0.085l59.739,56.41l34.137,32.26
	L349.872,503.465z"/>
<g>
	<polygon style="fill:#FDD834;" points="353.2,387.486 290.133,447.055 255.996,414.795 315.736,358.385 317.102,359.409 
		317.272,359.495 349.872,383.987 	"/>
	<polygon style="fill:#FDD834;" points="255.996,479.313 230.395,503.465 162.122,503.465 221.86,447.055 	"/>
</g>
<path style="fill:#6A1B9A;" d="M364.892,79.404l-94.558-66.31c-8.571-6.145-20.104-6.145-28.674,0l-4.267,2.987l-90.291,63.323
	c-6.323,4.503-9.013,12.574-6.657,19.969l12.63,40.793l9.131,29.272c-0.01-1.221,0.192-2.433,0.597-3.584
	c-0.085-0.085-0.085-0.085,0-0.171c4.694-18.434,35.075-33.283,74.589-36.867c5.973-0.597,12.204-0.854,18.605-0.854
	c22.507-0.456,44.87,3.697,65.713,12.204c14.935,6.657,24.919,15.532,27.48,25.517c0.085,0.085,0.085,0.085,0,0.171
	c0.405,1.151,0.608,2.364,0.597,3.584l21.763-70.065C373.906,91.978,371.216,83.907,364.892,79.404z"/>
<path style="fill:#9D27B0;" d="M334.34,99.374l-12.63,40.793c-20.843-8.507-43.206-12.659-65.713-12.204
	c-6.401,0-12.63,0.256-18.605,0.853c-39.513,3.584-69.894,18.434-74.589,36.867c-0.085,0.085-0.085,0.085,0,0.171
	c-0.406,1.151-0.608,2.364-0.597,3.584l-9.131-29.272l-12.63-40.793c-2.357-7.396,0.334-15.468,6.657-19.969l90.291-63.323
	l90.291,63.323C334.006,83.907,336.697,91.978,334.34,99.374z"/>
<path d="M256.006,348.105c-13.594,0.025-26.778-4.649-37.319-13.231c-37.529-30.395-56.564-57.177-56.564-79.582
	c0-2.379,0.091-4.759,0.291-7.043c0.316-3.113,0.475-6.151,0.625-9.126c0.927-17.824-0.572-35.69-4.458-53.109
	c-0.642-2.842-1.292-5.588-2.1-8.414c-0.955-3.483-1.668-7.028-2.133-10.609h0.008c-0.375-2.618,0.458-5.263,2.267-7.192
	c3.247-3.414,8.647-3.55,12.061-0.303c1.548,1.473,2.487,3.472,2.632,5.603c0.36,2.654,0.892,5.282,1.592,7.867
	c0.884,3.067,1.6,6.122,2.317,9.271c4.192,18.713,5.84,37.905,4.9,57.06c-0.208,3.975-0.384,7.301-0.717,10.551
	c-0.142,1.667-0.217,3.554-0.217,5.442c0,16.526,17.852,40.087,50.263,66.339c15.461,12.552,37.601,12.559,53.072,0.017
	c32.428-26.27,50.279-49.83,50.279-66.357c0-1.887-0.075-3.775-0.225-5.583c-0.325-3.109-0.5-6.434-0.667-9.692
	c-1.005-19.396,0.633-38.839,4.867-57.793c0.708-3.134,1.425-6.188,2.333-9.339c0.688-2.558,1.211-5.158,1.567-7.784
	c0.319-4.701,4.39-8.252,9.091-7.932c2.131,0.145,4.131,1.084,5.603,2.632c1.809,1.929,2.642,4.575,2.267,7.192h0.008
	c-0.461,3.553-1.166,7.07-2.108,10.526c-0.834,2.909-1.483,5.655-2.117,8.48c-3.861,17.222-5.375,34.888-4.501,52.517
	c0.184,3.584,0.341,6.622,0.65,9.593c0.208,2.426,0.3,4.805,0.3,7.184c0,22.406-19.035,49.188-56.58,79.599
	C282.759,343.462,269.586,348.13,256.006,348.105z"/>
<path d="M194.816,366.836c-0.258,0-0.516-0.012-0.775-0.033c-4.694-0.425-8.155-4.573-7.734-9.267
	c0.773-10.971,0.438-21.992-1-32.894c-1.118-9.605-2.748-19.143-4.883-28.574c-1.039-4.595,1.843-9.163,6.438-10.203
	c4.595-1.039,9.163,1.843,10.202,6.438c0.003,0.016,0.007,0.031,0.01,0.047c2.275,10.013,4.005,20.141,5.184,30.34
	c1.59,12.059,1.941,24.248,1.049,36.379C202.91,363.463,199.228,366.83,194.816,366.836z"/>
<path d="M317.261,368.028c-4.374-0.006-8.037-3.316-8.484-7.667c-1.061-12.571-0.74-25.22,0.958-37.721
	c1.182-10.183,2.913-20.294,5.184-30.29c1.012-4.601,5.563-7.511,10.164-6.499c4.601,1.012,7.511,5.563,6.499,10.164
	c-0.004,0.018-0.007,0.035-0.011,0.052c-2.134,9.423-3.764,18.952-4.883,28.549c-1.531,11.271-1.841,22.674-0.925,34.011
	c0.476,4.689-2.937,8.876-7.625,9.355C317.845,368.013,317.554,368.029,317.261,368.028z"/>
<path d="M158.871,256.413c-1.557-0.004-3.102-0.261-4.575-0.762c-4.4-1.462-17.777-5.922-17.777-59.414
	c0-5.75,0-23.243,11.776-28.531c7.597-2.352,15.873-0.407,21.627,5.084c3.534,3.118,3.87,8.511,0.753,12.045
	s-8.511,3.87-12.045,0.753c-0.985-0.819-2.09-1.484-3.275-1.971c-1.479,4.034-2.08,8.337-1.767,12.622
	c0,26.715,3.717,38.679,5.842,42.375c1.66-1.421,3.138-3.042,4.4-4.825c2.828-3.77,8.177-4.533,11.947-1.704
	c3.77,2.829,4.533,8.177,1.704,11.947l0,0C173.568,250.85,166.675,255.437,158.871,256.413z"/>
<path d="M353.122,256.413c-7.805-0.976-14.696-5.562-18.61-12.384c-2.828-3.77-2.066-9.119,1.704-11.947
	c3.77-2.828,9.119-2.066,11.947,1.704c1.262,1.784,2.74,3.405,4.4,4.825c2.125-3.696,5.842-15.659,5.842-42.375
	c0.314-4.286-0.287-8.591-1.766-12.626c-1.17,0.479-2.26,1.132-3.234,1.937c-3.524,3.13-8.917,2.81-12.047-0.712
	c-3.13-3.524-2.81-8.917,0.712-12.047c5.751-5.494,14.029-7.441,21.627-5.084c11.776,5.288,11.776,22.781,11.776,28.531
	c0,53.492-13.376,57.951-17.777,59.414C356.224,256.152,354.679,256.409,353.122,256.413z"/>
<path d="M264.531,264.509h-17.068c-4.713,0-8.534-3.82-8.534-8.534c0-4.713,3.821-8.534,8.534-8.534h17.068
	c4.713,0,8.534,3.821,8.534,8.534C273.065,260.689,269.244,264.509,264.531,264.509z"/>
<path d="M230.395,204.77h-34.137c-4.713,0-8.534-3.82-8.534-8.534c0-4.713,3.821-8.534,8.534-8.534h34.137
	c4.713,0,8.534,3.821,8.534,8.534C238.929,200.949,235.107,204.77,230.395,204.77z"/>
<path d="M315.736,204.77h-34.137c-4.713,0-8.534-3.82-8.534-8.534c0-4.713,3.82-8.534,8.534-8.534h34.137
	c4.713,0,8.534,3.821,8.534,8.534C324.27,200.949,320.449,204.77,315.736,204.77z"/>
<path d="M273.065,298.646h-34.137c-4.713,0-8.534-3.82-8.534-8.534s3.82-8.534,8.534-8.534h34.137c4.713,0,8.534,3.82,8.534,8.534
	S277.779,298.646,273.065,298.646z"/>
<path d="M213.326,221.839c-4.712,0.001-8.533-3.817-8.534-8.53c0-0.001,0-0.003,0-0.004v-17.068c0-4.713,3.82-8.534,8.534-8.534
	c4.713,0,8.534,3.82,8.534,8.534v17.068c0.001,4.712-3.817,8.533-8.53,8.534C213.329,221.839,213.328,221.839,213.326,221.839z"/>
<path d="M298.668,221.839c-4.712,0.001-8.533-3.817-8.534-8.53c0-0.001,0-0.003,0-0.004v-17.068c0-4.713,3.82-8.534,8.534-8.534
	s8.534,3.82,8.534,8.534v17.068c0.001,4.712-3.817,8.533-8.53,8.534C298.67,221.839,298.669,221.839,298.668,221.839z"/>
<path d="M255.996,511.999H74.563c-14.151,0.011-25.632-11.451-25.642-25.603c-0.002-2.644,0.405-5.272,1.207-7.792l11.276-35.178
	c14.547-39.465,51.454-66.266,93.484-67.885c4.712-0.155,8.656,3.54,8.811,8.252c0.153,4.676-3.487,8.604-8.161,8.808
	c-10.27,0.428-20.386,2.646-29.894,6.551c-22.242,9.266-39.659,27.32-48.121,49.88l-11.135,34.766
	c-1.426,4.504,1.069,9.31,5.573,10.736c0.842,0.267,1.719,0.401,2.603,0.399h181.434c4.713,0,8.534,3.82,8.534,8.534
	C264.531,508.179,260.71,511.999,255.996,511.999z"/>
<path d="M281.599,511.999h-25.603c-4.713,0-8.534-3.82-8.534-8.534s3.82-8.534,8.534-8.534h25.603c4.713,0,8.534,3.82,8.534,8.534
	C290.133,508.179,286.313,511.999,281.599,511.999z"/>
<path d="M437.43,511.999h-87.558c-4.713,0-8.534-3.82-8.534-8.534s3.82-8.534,8.534-8.534h87.558
	c4.722,0.012,8.56-3.805,8.572-8.527c0.002-0.891-0.135-1.776-0.405-2.625l-11.259-35.145
	c-12.357-32.619-43.027-54.685-77.882-56.035c-1.325-0.087-2.426-0.1-3.508-0.079h-3.075c-4.713,0-8.534-3.82-8.534-8.534
	c0-4.713,3.82-8.534,8.534-8.534h3.075c1.458,0,2.934,0.004,4.392,0.1c41.77,1.76,78.438,28.331,93.117,67.477l11.401,35.557
	c4.304,13.479-3.134,27.894-16.613,32.197C442.718,511.592,440.082,512.001,437.43,511.999z"/>
<path d="M194.733,368.028c-4.753,0.01-8.615-3.834-8.626-8.587c-0.01-4.753,3.834-8.615,8.587-8.626
	c4.753-0.01,8.615,3.834,8.626,8.587c0.007,3.208-1.77,6.154-4.612,7.643l-0.167,0.083
	C197.36,367.72,196.055,368.029,194.733,368.028z"/>
<path d="M349.864,392.522c-1.847,0.001-3.643-0.6-5.117-1.712l-32.47-24.389c-3.423-2.444-4.575-7.006-2.725-10.784
	c2.052-4.197,7.118-5.936,11.315-3.885c0.018,0.008,0.034,0.017,0.052,0.026l0.167,0.083c0.46,0.229,0.899,0.501,1.309,0.813
	l32.603,24.494c3.769,2.829,4.53,8.177,1.701,11.946C355.084,391.262,352.552,392.525,349.864,392.522z"/>
<path d="M349.872,511.999h-68.273c-2.178-0.001-4.273-0.833-5.859-2.325L149.353,390.271c-3.425-3.239-3.577-8.64-0.338-12.065
	c1.478-1.563,3.492-2.511,5.638-2.653c1.458-0.095,2.934-0.1,4.392-0.1h0.225l27.736-20.835c0.467-1.014,1.129-1.926,1.951-2.684
	c1.724-1.567,4.021-2.348,6.343-2.154l1.45,0.083c2.006,0.116,3.907,0.936,5.367,2.317l153.614,145.08
	c3.428,3.232,3.587,8.632,0.355,12.06C354.473,511.032,352.224,512.001,349.872,511.999z M284.991,494.931h43.412L195.608,369.506
	l-24.168,18.156L284.991,494.931z"/>
<path d="M162.122,511.999c-4.712,0.002-8.534-3.815-8.537-8.528c-0.001-2.351,0.968-4.598,2.678-6.212l59.739-56.409
	c3.392-3.273,8.794-3.175,12.067,0.217s3.175,8.794-0.217,12.067c-0.044,0.043-0.088,0.084-0.134,0.125l-59.739,56.409
	C166.397,511.168,164.3,512.001,162.122,511.999z"/>
<path d="M255.996,423.328c-4.712,0.002-8.534-3.815-8.537-8.528c-0.001-2.351,0.968-4.598,2.678-6.212l59.739-56.409
	c3.392-3.272,8.795-3.175,12.067,0.217c3.272,3.392,3.175,8.795-0.217,12.067c-0.044,0.043-0.088,0.084-0.133,0.125l-59.739,56.409
	C260.273,422.497,258.176,423.33,255.996,423.328z"/>
<path d="M290.133,455.59c-4.712,0-8.532-3.819-8.532-8.532c0-2.347,0.967-4.591,2.674-6.203l66.647-62.985
	c3.41-3.251,8.81-3.124,12.061,0.286s3.124,8.81-0.286,12.061c-0.019,0.018-0.038,0.036-0.057,0.054l-66.647,62.985
	C294.412,454.758,292.314,455.594,290.133,455.59z"/>
<path d="M230.395,511.999c-4.714-0.001-8.536-3.823-8.535-8.537c0-2.349,0.969-4.593,2.677-6.206l25.603-24.152
	c3.445-3.218,8.847-3.034,12.066,0.411c3.195,3.421,3.041,8.778-0.348,12.007l-25.603,24.152
	C234.669,511.17,232.573,512.001,230.395,511.999z"/>
<path d="M345.088,192.653c-4.717-0.008-8.533-3.839-8.523-8.555c0.003-1.832,0.595-3.614,1.689-5.084
	c0.734-0.998,1.376-2.061,1.916-3.175l0.083-0.225c0.689-1.571,1.057-3.265,1.084-4.98c-0.082-0.363-0.11-0.737-0.083-1.109
	c-0.254-0.725-0.414-1.48-0.475-2.246c-4.417-14.901-37.746-30.782-84.783-30.782c-47.004,0-80.324,15.855-84.775,30.749
	c-0.081,0.499-0.206,0.99-0.375,1.466c-0.035,0.823-0.123,1.643-0.267,2.455c0.161,1.532,0.551,3.031,1.158,4.446l0.083,0.229
	c0.541,1.113,1.183,2.175,1.916,3.171c2.812,3.784,2.024,9.131-1.76,11.944c-3.774,2.804-9.105,2.03-11.924-1.734
	c-1.532-2.078-2.85-4.307-3.934-6.651c-0.191-0.398-0.349-0.81-0.475-1.233c-1.343-3.41-2.041-7.039-2.059-10.705
	c-0.011-0.626,0.022-1.254,0.1-1.875c0.049-1.648,0.312-3.283,0.783-4.863c0.017-0.1,0.041-0.2,0.066-0.304h-0.008
	c6.475-25.59,49.147-44.163,101.468-44.163s94.992,18.573,101.468,44.163h-0.008c0.025,0.1,0.05,0.204,0.066,0.304
	c0.471,1.589,0.736,3.231,0.791,4.888c0.072,0.614,0.102,1.232,0.092,1.85c-0.018,3.695-0.727,7.355-2.092,10.788
	c-0.117,0.394-0.264,0.779-0.442,1.15c-1.084,2.344-2.402,4.572-3.934,6.651C350.327,191.386,347.786,192.657,345.088,192.653z"/>
<path d="M349.406,179.172c-4.719-0.006-8.539-3.836-8.533-8.555c0.001-0.853,0.13-1.702,0.383-2.518l22.152-71.248
	c1.237-3.866-0.136-8.091-3.409-10.493l-94.525-66.322c-5.674-4.034-13.278-4.034-18.952,0l-94.525,66.322
	c-3.272,2.4-4.645,6.623-3.409,10.489l22.152,71.253c1.399,4.502-1.116,9.285-5.618,10.685c-4.502,1.399-9.285-1.116-10.685-5.618
	l0,0l-22.152-71.247c-3.497-10.95,0.514-22.903,9.909-29.528L236.72,6.069c11.578-8.092,26.977-8.092,38.553,0l94.526,66.322
	c9.395,6.626,13.406,18.58,9.909,29.532l-22.152,71.244C356.446,176.736,353.143,179.169,349.406,179.172z"/>
<path d="M255.996,102.361c-4.712,0.001-8.533-3.817-8.534-8.53c0-0.001,0-0.003,0-0.004V42.622c0-4.713,3.82-8.534,8.534-8.534
	s8.534,3.82,8.534,8.534v51.204c0.001,4.712-3.817,8.533-8.53,8.534C256,102.361,255.998,102.361,255.996,102.361z"/>
<path d="M273.065,68.225h-34.137c-4.713,0-8.534-3.82-8.534-8.534s3.82-8.534,8.534-8.534h34.137c4.713,0,8.534,3.82,8.534,8.534
	S277.779,68.225,273.065,68.225z"/>
<g>
</g>
<g>
</g>
<g>
</g>
<g>
</g>
<g>
</g>
<g>
</g>
<g>
</g>
<g>
</g>
<g>
</g>
<g>
</g>
<g>
</g>
<g>
</g>
<g>
</g>
<g>
</g>
<g>
</g>
</svg>
