<?xml version="1.0" encoding="iso-8859-1"?>
<!-- Generator: Adobe Illustrator 19.0.0, SVG Export Plug-In . SVG Version: 6.00 Build 0)  -->
<svg version="1.1" id="Capa_1" xmlns="http://www.w3.org/2000/svg" xmlns:xlink="http://www.w3.org/1999/xlink" x="0px" y="0px"
	 viewBox="0 0 511.952 511.952" style="enable-background:new 0 0 511.952 511.952;" xml:space="preserve">
<g>
	<g>
		<path d="M264.513,247.419h-17.067c-4.713,0-8.533,3.82-8.533,8.533s3.82,8.533,8.533,8.533h17.067c4.713,0,8.533-3.82,8.533-8.533
			S269.226,247.419,264.513,247.419z"/>
	</g>
</g>
<g>
	<g>
		<path d="M230.385,187.685c-0.002,0-0.003,0-0.004,0h-34.133c-4.713,0-8.533,3.82-8.533,8.533s3.82,8.533,8.533,8.533h8.533v8.533
			c0,4.713,3.821,8.533,8.533,8.533c4.713,0,8.533-3.821,8.533-8.533v-8.533h8.533c4.712,0.001,8.532-3.817,8.533-8.529
			c0-0.001,0-0.003,0-0.004C238.915,191.507,235.096,187.687,230.385,187.685z"/>
	</g>
</g>
<g>
	<g>
		<path d="M315.714,187.685H281.58c-4.713,0-8.533,3.82-8.533,8.533s3.82,8.533,8.533,8.533h8.533v8.533
			c0,4.713,3.82,8.533,8.533,8.533s8.533-3.821,8.533-8.533v-8.533h8.533c4.713,0,8.533-3.82,8.533-8.533
			S320.426,187.685,315.714,187.685z"/>
	</g>
</g>
<g>
	<g>
		<path d="M273.047,281.552h-34.133c-4.713,0-8.533,3.82-8.533,8.533s3.82,8.533,8.533,8.533h34.133c4.713,0,8.533-3.82,8.533-8.533
			S277.76,281.552,273.047,281.552z"/>
	</g>
</g>
<g>
	<g>
		<path d="M461.822,478.544l-11.4-35.554c-10.145-27.018-31.028-48.628-57.683-59.692c-2.523-1.021-5.068-1.899-7.618-2.723
			c-20.265-24.694-19.756-34.364-18.748-51.49c0.267-4.413,0.542-9.18,0.542-14.596c-0.905-20.413-6.323-40.372-15.863-58.442
			c0.673,0.162,1.357,0.277,2.047,0.341c1.556-0.004,3.102-0.261,4.575-0.763c4.4-1.462,17.775-5.92,17.775-59.408
			c0-5.75,0-23.242-11.775-28.529c-1.093-0.476-2.24-0.819-3.414-1.022l0.831-0.853l-0.962-1.01l19.554-62.89
			c3.497-10.95-0.514-22.904-9.908-29.529L275.255,6.069c-11.576-8.092-26.974-8.092-38.55,0l-94.517,66.317
			c-9.393,6.624-13.404,18.576-9.908,29.525l19.588,62.999l-0.996,1.075l0.716,0.715c-1.134,0.201-2.241,0.533-3.299,0.989
			c-11.775,5.288-11.775,22.779-11.775,28.529c0,53.488,13.375,57.946,17.775,59.408c1.473,0.501,3.019,0.759,4.575,0.763
			c0.69-0.065,1.374-0.179,2.047-0.341c-9.541,18.069-14.959,38.028-15.864,58.441c0,5.417,0.275,10.183,0.542,14.596
			c1.007,17.127,1.517,26.796-18.752,51.494c-2.576,0.831-5.146,1.719-7.698,2.752c-26.752,11.128-47.668,32.884-57.733,60.054
			L50.131,478.56c-4.292,13.483,3.158,27.892,16.641,32.185c2.519,0.802,5.148,1.209,7.792,1.207h362.833
			c14.148,0.012,25.626-11.447,25.639-25.594C463.038,483.706,462.628,481.07,461.822,478.544z M360.408,375.777
			c-1.031-0.072-2.066-0.219-3.094-0.258l-0.259-0.006l-0.123-0.003c-1.334-0.074-2.678-0.091-4.009-0.091h-0.23l-27.187-20.426
			c-0.541-10.15-0.153-20.328,1.159-30.408c1.065-9.034,2.586-18.008,4.556-26.889c4.451-5.499,8.363-11.412,11.685-17.658
			c4.269,11.002,6.617,22.654,6.943,34.451c0,5.042-0.267,9.483-0.508,13.588C346.923,344.802,350.873,361.825,360.408,375.777z
			 M202.247,322.66c-0.09-0.796-0.247-1.627-0.345-2.427c5.154,4.783,10.621,9.629,16.77,14.61
			c21.739,17.633,52.853,17.64,74.6,0.017c6.154-4.984,11.623-9.834,16.78-14.62c-0.096,0.779-0.251,1.594-0.338,2.37
			c-1.322,10.277-1.792,20.645-1.406,30.999l-52.33,49.414l-52.369-49.46C203.99,343.243,203.535,332.908,202.247,322.66z
			 M175.214,182.223l-0.033-0.134l-0.014-0.054c-0.702-3.082-1.404-6.078-2.27-9.083c-0.505-1.82-0.866-3.923-1.22-6.03l0.595-2.278
			c7.292-14.083,39.425-28.158,83.708-28.158c43.942,0,75.925,13.862,83.533,27.833l-0.092,0.112l0.91,2.557
			c-0.316,1.98-0.731,3.943-1.244,5.881c-0.89,3.086-1.591,6.082-2.286,9.149l-0.022,0.089l-0.025,0.099
			c-4.234,18.953-5.871,38.394-4.867,57.788c0.167,3.258,0.341,6.583,0.667,9.692c0.15,1.808,0.225,3.696,0.225,5.583
			c0,16.525-17.85,40.083-50.275,66.35c-15.468,12.541-37.606,12.534-53.067-0.017c-32.408-26.25-50.258-49.808-50.258-66.333
			c0-1.887,0.075-3.775,0.217-5.442c0.333-3.25,0.508-6.575,0.717-10.55C181.053,220.125,179.404,200.934,175.214,182.223z
			 M316.365,369.473l24.17,18.155l-50.413,47.642l-21.717-20.51L316.365,369.473z M358.38,196.219
			c0,26.713-3.717,38.675-5.842,42.371v0c-1.364-1.195-2.603-2.528-3.695-3.976c-0.498-15.862,0.942-31.725,4.288-47.239
			c0.581-0.892,1.147-1.857,1.684-2.863c0.57-0.361,1.172-0.669,1.799-0.918C358.093,187.629,358.695,191.933,358.38,196.219z
			 M148.58,96.84c-1.236-3.865,0.136-8.088,3.408-10.487l94.517-66.317c5.673-4.033,13.277-4.033,18.95,0l94.517,66.317
			c3.273,2.401,4.645,6.625,3.408,10.492l-15.712,50.534c-16.657-16.849-51.261-27.959-91.688-27.959
			c-40.431,0-75.037,11.112-91.688,27.959L148.58,96.84z M159.422,238.589c-2.125-3.696-5.841-15.658-5.841-42.371
			c-0.314-4.285,0.288-8.587,1.766-12.621c0.631,0.256,1.237,0.57,1.811,0.937c0.535,1.001,1.1,1.961,1.679,2.849
			c3.331,15.52,4.761,31.388,4.26,47.254C162.009,236.077,160.778,237.401,159.422,238.589z M162.621,328.077
			c-0.241-4.104-0.508-8.546-0.508-13.588c0.334-11.789,2.686-23.434,6.953-34.429c3.319,6.238,7.229,12.144,11.674,17.636
			c1.972,8.888,3.493,17.871,4.556,26.913c0.987,8.072,1.453,16.198,1.394,24.33l-0.419-0.034v6.225l-27.008,20.288h-0.225
			c-1.368,0-2.75,0.015-4.12,0.094l-0.038-0.006l-0.12,0.01l-0.114,0.003l-3.057,0.2
			C161.098,361.778,165.035,344.779,162.621,328.077z M74.563,494.885c-4.723,0.012-8.562-3.807-8.574-8.531
			c-0.002-0.883,0.132-1.761,0.399-2.603l11.133-34.763c8.462-22.557,25.877-40.609,48.117-49.875
			c8.451-3.434,17.38-5.548,26.473-6.266L209.434,447l-50.712,47.885H74.563z M226.986,494.885h-43.407l38.281-36.147l21.707,20.507
			L226.986,494.885z M255.98,494.885h-4.115l4.132-3.897l4.126,3.897H255.98z M284.972,494.885L171.43,387.627l24.166-18.154
			L328.38,494.885H284.972z M440.021,494.48c-0.848,0.271-1.734,0.408-2.624,0.405h-84.154l-50.699-47.882l57.304-54.155
			c9.064,0.713,17.965,2.815,26.39,6.233c10.557,4.389,20.149,10.808,28.233,18.892c8.687,8.702,15.445,19.135,19.833,30.621
			l11.258,35.142C447,488.233,444.519,493.043,440.021,494.48z"/>
	</g>
</g>
<g>
	<g>
		<path d="M273.047,51.152h-8.533v-8.533c0-4.713-3.82-8.533-8.533-8.533c-4.713,0-8.533,3.82-8.533,8.533v8.533h-8.533
			c-4.713,0-8.533,3.82-8.533,8.533s3.82,8.533,8.533,8.533h8.533v25.6c0,4.713,3.82,8.533,8.533,8.533
			c4.713,0,8.533-3.82,8.533-8.533v-25.6h8.533c4.713,0,8.533-3.82,8.533-8.533S277.76,51.152,273.047,51.152z"/>
	</g>
</g>
<g>
</g>
<g>
</g>
<g>
</g>
<g>
</g>
<g>
</g>
<g>
</g>
<g>
</g>
<g>
</g>
<g>
</g>
<g>
</g>
<g>
</g>
<g>
</g>
<g>
</g>
<g>
</g>
<g>
</g>
</svg>
