<svg height="416pt" viewBox="-17 0 416 416.42667" width="416pt" xmlns="http://www.w3.org/2000/svg"><path d="m282.617188 47.785156c0-22.621094-43.75-40.957031-97.714844-40.957031-53.96875 0-97.714844 18.335937-97.714844 40.957031 0 22.625 43.746094 40.960938 97.714844 40.960938 53.964844 0 97.714844-18.335938 97.714844-40.960938zm0 0" fill="#94c1ff"/><path d="m184.898438 95.574219c-59.59375 0-104.539063-20.546875-104.539063-47.789063 0-27.238281 44.945313-47.785156 104.539063-47.785156 59.601562 0 104.546874 20.546875 104.546874 47.785156 0 27.242188-44.945312 47.789063-104.546874 47.789063zm0-81.921875c-53.558594 0-90.886719 17.988281-90.886719 34.132812 0 16.148438 37.328125 34.136719 90.886719 34.136719 53.566406 0 90.890624-17.988281 90.890624-34.136719 0-16.144531-37.324218-34.132812-90.890624-34.132812zm0 0" fill="#0e65e5"/><path d="m254.699219 110.535156v-27.070312l-130.289063-1.542969v28.613281c-10.277344 0-18.613281 8.539063-18.613281 19.074219s8.335937 19.078125 18.613281 19.078125c.492188 0 .953125-.109375 1.433594-.148438 4.660156 22.199219 18.203125 40.183594 39.886719 54.300782 14.941406 9.730468 34.066406 9.8125 48.492187-.707032 18.789063-13.699218 30.25-32.335937 37.59375-53.742187.945313.152344 1.894532.296875 2.878906.296875 10.28125 0 18.613282-8.542969 18.613282-19.078125.003906-10.535156-8.328125-19.074219-18.609375-19.074219zm0 0" fill="#d7e9ff"/><g fill="#0e65e5"><path d="m189.757812 216.941406c-9.527343 0-19.164062-2.789062-27.75-8.382812-21.714843-14.132813-35.671874-32.066406-41.566406-53.359375-12.152344-1.949219-21.472656-12.679688-21.472656-25.585938 0-11.878906 7.890625-21.914062 18.613281-24.960937v-22.730469c0-1.828125.730469-3.574219 2.027344-4.855469 1.300781-1.28125 3.164063-2.019531 4.878906-1.972656l130.292969 1.546875c3.738281.046875 6.746094 3.085937 6.746094 6.824219v21.1875c10.722656 3.046875 18.609375 13.082031 18.609375 24.960937 0 13.652344-10.433594 24.878907-23.613281 25.832031-8.570313 22.585938-21.128907 39.703126-38.28125 52.203126-8.476563 6.183593-18.421876 9.285156-28.484376 9.292968zm-63.910156-75.226562c3.203125 0 6.007813 2.238281 6.675782 5.425781 4.242187 20.214844 16.324218 36.558594 36.933593 49.980469 12.855469 8.371094 28.851563 8.171875 40.742188-.5 16.019531-11.679688 27.519531-28.179688 35.160156-50.449219 1.078125-3.140625 4.261719-5.066406 7.546875-4.523437.589844.09375 1.179688.210937 1.796875.210937 6.496094 0 11.78125-5.492187 11.78125-12.246094 0-6.753906-5.289063-12.253906-11.78125-12.253906-3.773437 0-6.828125-3.054687-6.828125-6.828125v-20.320312l-116.636719-1.382813v21.707031c0 3.773438-3.058593 6.824219-6.828125 6.824219-6.5 0-11.785156 5.5-11.785156 12.253906 0 6.753907 5.285156 12.25 11.785156 12.25.125-.023437.746094-.113281.867188-.121093.191406-.023438.382812-.027344.570312-.027344zm0 0"/><path d="m375.679688 416.425781h-368.640626c-3.769531 0-6.824218-3.050781-6.824218-6.824219v-78.839843c0-47.28125 27.410156-89.753907 69.832031-108.195313 3.445313-1.519531 7.476563.074219 8.984375 3.539063 1.503906 3.453125-.082031 7.480469-3.535156 8.980469-37.4375 16.273437-61.628906 53.828124-61.628906 95.675781v72.011719h354.984374v-72.011719c0-41.847657-24.1875-79.402344-61.625-95.675781-3.457031-1.5-5.039062-5.527344-3.535156-8.980469 1.5-3.457031 5.523438-5.054688 8.984375-3.539063 42.417969 18.441406 69.832031 60.914063 69.832031 108.195313v78.839843c0 3.773438-3.058593 6.824219-6.828124 6.824219zm0 0"/><path d="m301.230469 407.355469c-3.769531 0-6.828125-3.054688-6.828125-6.828125v-40.644532c0-3.773437 3.058594-6.828124 6.828125-6.828124s6.828125 3.054687 6.828125 6.828124v40.644532c0 3.773437-3.058594 6.828125-6.828125 6.828125zm0 0"/><path d="m82.132812 409.601562c-3.769531 0-6.824218-3.054687-6.824218-6.828124v-40.960938c0-3.773438 3.054687-6.824219 6.824218-6.824219 3.769532 0 6.828126 3.050781 6.828126 6.824219v40.960938c0 3.773437-3.058594 6.828124-6.828126 6.828124zm0 0"/><path d="m301.222656 292.253906c-1.027344 0-2.066406-.234375-3.046875-.722656l-18.613281-9.304688c-3.371094-1.6875-4.738281-5.789062-3.050781-9.160156 1.683593-3.371094 5.78125-4.730468 9.160156-3.054687l12.59375 6.300781 9.65625-18.621094-31.453125-19.804687c-3.1875-2.011719-4.148438-6.226563-2.140625-9.421875 2.007813-3.191406 6.21875-4.144532 9.414063-2.136719l36.769531 23.15625c3.003906 1.886719 4.054687 5.769531 2.421875 8.914063l-15.644532 30.167968c-1.210937 2.339844-3.59375 3.6875-6.066406 3.6875zm0 0"/><path d="m68.574219 292.253906c-1.121094 0-2.234375-.273437-3.238281-.820312-1.660157-.890625-2.875-2.433594-3.359376-4.253906l-6.917968-26.011719c-.753906-2.820313.375-5.8125 2.808594-7.433594l40.960937-27.304687c3.132813-2.09375 7.367187-1.246094 9.464844 1.890624 2.089843 3.140626 1.246093 7.375-1.890625 9.46875l-36.894532 24.59375 3.796876 14.269532 21.03125-7.003906c3.59375-1.191407 7.445312.742187 8.636718 4.3125 1.191406 3.582031-.742187 7.445312-4.316406 8.632812l-27.921875 9.308594c-.703125.238281-1.433594.351562-2.160156.351562zm0 0"/></g><path d="m180.101562 256.46875-13.316406 30.261719 22.769532 54.535156 26.859374-54.535156-17.554687-29.222657zm0 0" fill="#d7e9ff"/><path d="m189.550781 348.09375c-.066406 0-.136719 0-.210937 0-2.671875-.085938-5.058594-1.726562-6.085938-4.199219l-22.765625-54.542969c-.722656-1.71875-.703125-3.664062.046875-5.371093l13.3125-30.257813c1.152344-2.601562 3.835938-4.175781 6.628906-4.066406l18.757813 1.039062c2.261719.117188 4.3125 1.359376 5.480469 3.300782l17.550781 29.21875c1.195313 1.984375 1.296875 4.445312.269531 6.527344l-26.859375 54.539062c-1.148437 2.339844-3.527343 3.8125-6.125 3.8125zm-15.335937-61.292969 15.851562 37.972657 18.578125-37.71875-13.773437-22.9375-10.425782-.570313zm0 0" fill="#0e65e5"/><path d="m259.351562 102.398438h-148.898437v-29.746094c49.546875-14.972656 99.179687-14.921875 148.898437 0zm0 0" fill="#288eea"/><path d="m259.351562 109.226562h-148.902343c-3.769531 0-6.824219-3.054687-6.824219-6.828124v-29.746094c0-3.007813 1.96875-5.664063 4.851562-6.53125 50.535157-15.273438 101.960938-15.265625 152.839844-.007813 2.882813.867188 4.863282 3.527344 4.863282 6.539063v29.746094c-.003907 3.773437-3.058594 6.828124-6.828126 6.828124zm-142.074218-13.652343h135.246094v-17.792969c-45.042969-12.59375-90.488282-12.617188-135.246094-.007812zm0 0" fill="#0e65e5"/><path d="m264.003906 257.507812-27.917968-18.613281-46.53125 102.371094-46.53125-102.371094-27.917969 18.613281 9.304687 27.921876-9.304687 9.304687 74.449219 111.675781 74.449218-111.675781-9.304687-9.304687zm0 0" fill="#288eea"/><path d="m189.550781 413.234375c-2.28125 0-4.410156-1.140625-5.679687-3.039063l-74.449219-111.675781c-1.804687-2.707031-1.445313-6.3125.855469-8.613281l6.320312-6.328125-7.972656-23.914063c-.972656-2.917968.128906-6.132812 2.691406-7.839843l27.917969-18.613281c1.664063-1.105469 3.738281-1.433594 5.660156-.886719 1.925781.554687 3.515625 1.921875 4.339844 3.738281l40.316406 88.703125 40.320313-88.703125c.824218-1.816406 2.414062-3.183594 4.339844-3.738281 1.933593-.546875 3.992187-.21875 5.660156.886719l27.914062 18.613281c2.5625 1.707031 3.664063 4.921875 2.691406 7.839843l-7.972656 23.914063 6.320313 6.328125c2.300781 2.300781 2.660156 5.90625.855469 8.613281l-74.449219 111.675781c-1.265625 1.898438-3.394531 3.039063-5.679688 3.039063zm-65.664062-117.632813 65.667969 98.5 65.667968-98.5-5.347656-5.347656c-1.828125-1.828125-2.464844-4.535156-1.652344-6.988281l7.65625-22.972656-16.898437-11.269531-43.210938 95.066406c-1.105469 2.433594-3.539062 4-6.214843 4-2.675782 0-5.105469-1.566406-6.214844-4l-43.207032-95.066406-16.902343 11.269531 7.65625 22.972656c.820312 2.453125.179687 5.160156-1.648438 6.988281zm0 0" fill="#0e65e5"/><path d="m208.167969 238.894531c0 10.28125-8.335938 18.613281-18.613281 18.613281-10.28125 0-18.613282-8.332031-18.613282-18.613281 0-10.277343 8.332032-18.613281 18.613282-18.613281 10.277343 0 18.613281 8.335938 18.613281 18.613281zm0 0" fill="#d7e9ff"/><path d="m189.550781 264.332031c-14.023437 0-25.433593-11.414062-25.433593-25.4375 0-14.027343 11.410156-25.433593 25.433593-25.433593 14.027344 0 25.441407 11.40625 25.441407 25.433593 0 14.023438-11.414063 25.4375-25.441407 25.4375zm0-37.21875c-6.496093 0-11.78125 5.285157-11.78125 11.777344 0 6.503906 5.289063 11.789063 11.78125 11.789063 6.503907 0 11.789063-5.289063 11.789063-11.789063 0-6.492187-5.285156-11.777344-11.789063-11.777344zm0 0" fill="#0e65e5"/><path d="m314.238281 184.320312c-3.769531 0-6.824219-3.054687-6.824219-6.828124v-27.304688c0-3.773438 3.054688-6.828125 6.824219-6.828125 3.773438 0 6.828125 3.054687 6.828125 6.828125v27.304688c0 3.773437-3.054687 6.828124-6.828125 6.828124zm0 0" fill="#0e65e5"/><path d="m327.894531 170.667969h-27.308593c-3.769532 0-6.824219-3.054688-6.824219-6.828125 0-3.773438 3.054687-6.828125 6.824219-6.828125h27.308593c3.769531 0 6.824219 3.054687 6.824219 6.828125 0 3.773437-3.054688 6.828125-6.824219 6.828125zm0 0" fill="#0e65e5"/><path d="m20.691406 109.226562c-3.769531 0-6.824218-3.054687-6.824218-6.828124v-27.304688c0-3.773438 3.054687-6.828125 6.824218-6.828125 3.773438 0 6.828125 3.054687 6.828125 6.828125v27.304688c0 3.773437-3.054687 6.828124-6.828125 6.828124zm0 0" fill="#0e65e5"/><path d="m34.347656 95.574219h-27.308594c-3.769531 0-6.824218-3.054688-6.824218-6.828125 0-3.773438 3.054687-6.824219 6.824218-6.824219h27.308594c3.769532 0 6.824219 3.050781 6.824219 6.824219 0 3.773437-3.054687 6.828125-6.824219 6.828125zm0 0" fill="#0e65e5"/><path d="m109.433594 54.53125c-1.335938 0-2.683594-.386719-3.859375-1.203125-3.042969-2.128906-3.875-6.234375-1.8125-9.328125 1.601562-2.40625 17.3125-23.519531 73.945312-23.519531 3.769531 0 6.828125 3.054687 6.828125 6.828125 0 3.773437-3.058594 6.824218-6.828125 6.824218-49.292969 0-62.539062 17.382813-62.667969 17.554688-1.347656 1.84375-3.460937 2.84375-5.605468 2.84375zm0 0" fill="#fff"/></svg>