<?xml version="1.0" encoding="iso-8859-1"?>
<!-- Generator: Adobe Illustrator 19.0.0, SVG Export Plug-In . SVG Version: 6.00 Build 0)  -->
<svg version="1.1" id="Capa_1" xmlns="http://www.w3.org/2000/svg" xmlns:xlink="http://www.w3.org/1999/xlink" x="0px" y="0px"
	 viewBox="0 0 512 512" style="enable-background:new 0 0 512 512;" xml:space="preserve">
<g>
	<g>
		<path d="M285.425,88.091l-15.194-77.835c-4.559-13.674-23.903-13.674-28.462,0L226.575,88.09c-0.379,1.921-0.379,3.898,0,5.819
			l15.196,76.835c4.557,13.675,23.901,13.675,28.458,0l15.196-76.835C285.804,91.988,285.804,90.011,285.425,88.091z"/>
	</g>
</g>
<g>
	<g>
		<path d="M312.413,69.904l2.444,12.35c1.143,5.815,1.143,11.675,0,17.461l-15.571,78.721l-0.601,1.802
			c-6.137,18.399-23.29,30.762-42.685,30.762c-19.395,0-36.548-12.363-42.686-30.762l-0.601-1.802l-15.571-78.691
			c-1.143-5.815-1.143-11.675,0-17.461l2.451-12.381C118.101,94.37,61,168.639,61,256v211c0,7.148,5.054,13.301,12.056,14.707
			L121,491.296V376c0-8.291,6.709-15,15-15s15,6.709,15,15v121.297L211,512V326.811l-79.746-26.587
			C125.131,298.188,121,292.46,121,286v-60c0-4.614,2.124-8.979,5.771-11.821c3.647-2.827,8.408-3.853,12.861-2.725L256,240.532
			l116.367-29.077c4.453-1.172,9.214-0.117,12.861,2.725c3.647,2.842,5.772,7.207,5.772,11.821v60
			c0,6.46-4.131,12.188-10.254,14.224L301,326.811V512l60-14.703V376c0-8.291,6.709-15,15-15c8.291,0,15,6.709,15,15v115.296
			l47.944-9.589C445.946,480.301,451,474.148,451,467V256C451,168.641,393.899,94.376,312.413,69.904z"/>
	</g>
</g>
<g>
</g>
<g>
</g>
<g>
</g>
<g>
</g>
<g>
</g>
<g>
</g>
<g>
</g>
<g>
</g>
<g>
</g>
<g>
</g>
<g>
</g>
<g>
</g>
<g>
</g>
<g>
</g>
<g>
</g>
</svg>
