<svg height="448pt" viewBox="-50 0 448 448" width="448pt" xmlns="http://www.w3.org/2000/svg"><path d="m37.753906 0v80h272v-80h-16v32h-48v-32h-16v32h-48v-32h-16v32h-48v-32h-16v32h-48v-32zm0 0"/><path d="m287.503906 352h-227.503906l-4 16h235.503906zm0 0"/><path d="m78.65625 336h190.191406l-22.296875-208h-145.597656zm171.441406-24.847656-15.90625 1.695312-13.6875-127.734375 15.902344-1.707031zm-17.152344-160 1.679688 15.648437-15.90625 1.703125-1.679688-15.640625zm0 0"/><path d="m101.753906 96h144v16h-144zm0 0"/><path d="m311.984375 384h-276.464844l-10.664062 32h297.792969zm0 0"/><path d="m0 448h347.503906l-4-16h-339.503906zm0 0"/></svg>