<?xml version="1.0" encoding="iso-8859-1"?>
<!-- Generator: Adobe Illustrator 19.0.0, SVG Export Plug-In . SVG Version: 6.00 Build 0)  -->
<svg version="1.1" id="Capa_1" xmlns="http://www.w3.org/2000/svg" xmlns:xlink="http://www.w3.org/1999/xlink" x="0px" y="0px"
	 viewBox="0 0 512 512" style="enable-background:new 0 0 512 512;" xml:space="preserve">
<g>
	<g>
		<path d="M440.277,146.5l-91.923-95.592c-2.828-2.941-6.732-4.603-10.812-4.603h-15.447V15c0-8.284-6.716-15-15-15
			c-14.367,0-27.621,4.834-38.241,12.949c-2.638-2.306-6.081-3.715-9.86-3.715c-89.719,0-162.71,72.991-162.71,162.709v169.678
			c-7.365,0.954-13.06,7.235-13.06,14.86v31.898H70.331c-8.284,0-15,6.716-15,15V497c0,8.284,6.716,15,15,15h318.292
			c8.284,0,15-6.716,15-15v-93.619c0-8.284-6.716-15-15-15h-12.894v-31.898c0-8.284-6.716-15-15-15h-14.866
			c-0.247-1.211-0.629-2.412-1.194-3.575l-38.201-78.622c2.194,0.196,4.387,0.316,6.574,0.316c20.061,0,39.568-8.184,53.66-23.04
			c23.409,14.864,54.393,11.295,73.793-9.098C462.145,204.705,462.049,169.142,440.277,146.5z M126.284,171.944
			c0-68.107,51.567-124.395,117.71-131.867v19.884c-56.92,7.376-101.026,56.164-101.026,115.061v166.461h-16.684V171.944z
			 M373.622,418.381V482H85.331v-63.619H373.622z M345.728,371.483v16.898H113.224v-16.898H345.728z M418.758,206.786
			c-9.978,10.488-26.24,11.854-37.827,3.172l-8.219-6.157c-3.401-2.548-7.725-3.535-11.893-2.711
			c-4.17,0.821-7.795,3.373-9.976,7.021c-11.55,19.323-35.696,26.829-56.165,17.461c-20.218-9.252-30.391-32.211-23.665-53.403
			l2.404-7.574c2.506-7.896-1.863-16.329-9.759-18.835c-7.895-2.507-16.328,1.863-18.835,9.759l-2.405,7.574
			c-9.111,28.706,0.235,59.33,21.988,78.28l48.642,100.11h-140.08V175.021c0-47.435,38.591-86.026,86.026-86.026
			c8.284,0,15-6.716,15-15V62.627c0.187-12.657,7.495-23.62,18.101-29.031v27.708c0,8.284,6.716,15,15,15h24.061l87.497,90.989
			C429.273,178.338,429.319,195.685,418.758,206.786z"/>
	</g>
</g>
<g>
	<g>
		<path d="M330.924,122.096h-8.281c-8.284,0-15,6.716-15,15s6.716,15,15,15h8.281c8.284,0,15-6.716,15-15
			S339.208,122.096,330.924,122.096z"/>
	</g>
</g>
<g>
</g>
<g>
</g>
<g>
</g>
<g>
</g>
<g>
</g>
<g>
</g>
<g>
</g>
<g>
</g>
<g>
</g>
<g>
</g>
<g>
</g>
<g>
</g>
<g>
</g>
<g>
</g>
<g>
</g>
</svg>
