<svg height="464pt" viewBox="-48 0 464 464" width="464pt" xmlns="http://www.w3.org/2000/svg"><path d="m24 432h-16l-8 32h184v-32zm0 0" fill="#808285"/><path d="m360 432h-176v32h184zm0 0" fill="#8e9093"/><path d="m184 384h-144l-16 48h160zm0 0" fill="#57a4ff"/><path d="m184 432h160l-16-48h-144zm0 0" fill="#6aaeff"/><path d="m184 352h-120l-8 32h128zm0 0" fill="#a7a9ac"/><path d="m184 384h128l-8-32h-120zm0 0" fill="#bcbec0"/><path d="m184 352h104l-24-224h-80zm0 0" fill="#d6eaf9"/><path d="m184 128h-80l-24 224h104zm0 0" fill="#c2dff6"/><path d="m184 0h-16v32h-32v-32h-32v32h-32v-32h-32v96h144zm0 0" fill="#9bc9ff"/><path d="m264 96h64v-96h-32v32h-32v-32h-32v32h-32v-32h-16v96zm0 0" fill="#bddbff"/><path d="m104 96h80v32h-80zm0 0" fill="#a7a9ac"/><path d="m184 96h80v32h-80zm0 0" fill="#bcbec0"/><g fill="#f1f2f2"><path d="m230.761719 193.109375 15.910156-1.703125 13.679687 127.742188-15.910156 1.703124zm0 0"/><path d="m227.289062 160.855469 15.90625-1.710938 1.683594 15.644531-15.910156 1.710938zm0 0"/></g></svg>