<svg height="554pt" viewBox="-38 -17 554 554.6655" width="554pt" xmlns="http://www.w3.org/2000/svg"><path d="m325.265625 99.90625c-3.058594 0-6.007813-1.648438-7.539063-4.53125-2.207031-4.160156-.621093-9.320312 3.539063-11.527344 14.015625-7.425781 21.730469-16.007812 21.730469-24.175781 0-20.160156-46.613282-42.625-113.496094-42.625-66.878906 0-113.492188 22.464844-113.492188 42.625 0 8.089844 7.601563 16.617187 21.410157 24.003906 4.144531 2.222657 5.714843 7.382813 3.496093 11.535157-2.222656 4.144531-7.378906 5.703124-11.539062 3.496093-25.136719-13.441406-30.414062-28.648437-30.414062-39.035156 0-34.015625 56.125-59.671875 130.539062-59.671875 74.425781 0 130.550781 25.65625 130.550781 59.671875 0 10.457031-5.347656 25.75-30.800781 39.246094-1.273438.671875-2.636719.988281-3.984375.988281zm0 0"/><path d="m235.566406 270.898438c-11.894531 0-23.929687-3.480469-34.652344-10.46875-27.113281-17.644532-44.542968-40.039063-51.902343-66.628907-15.175781-2.433593-26.8125-15.832031-26.8125-31.949219 0-14.835937 9.851562-27.367187 23.242187-31.171874v-.238282c0-4.710937 3.820313-8.527344 8.527344-8.527344s8.519531 3.816407 8.519531 8.527344v7.585938c0 4.710937-3.8125 8.523437-8.519531 8.523437-8.117188 0-14.722656 6.867188-14.722656 15.300781 0 8.433594 6.605468 15.296876 14.722656 15.296876.148438-.03125.925781-.140626 1.082031-.152344 4.21875-.414063 8.164063 2.53125 9.046875 6.742187 5.296875 25.242188 20.386719 45.65625 46.121094 62.410157 16.050781 10.457031 36.027344 10.210937 50.875-.625 20.003906-14.582032 34.363281-35.1875 43.90625-62.992188 1.34375-3.921875 5.320312-6.332031 9.421875-5.652344.738281.117188 1.472656.269532 2.246094.269532 8.109375 0 14.710937-6.863282 14.710937-15.296876 0-8.433593-6.605468-15.300781-14.710937-15.300781-4.714844 0-8.527344-3.8125-8.527344-8.523437v-7.851563c0-4.714843 3.8125-8.523437 8.527344-8.523437 4.707031 0 8.519531 3.808594 8.519531 8.523437v.503907c13.390625 3.804687 23.238281 16.335937 23.238281 31.171874 0 17.046876-13.027343 31.066407-29.488281 32.257813-10.699219 28.203125-26.378906 49.578125-47.800781 65.183594-10.585938 7.722656-23.003907 11.597656-35.570313 11.605469zm0 0"/><path d="m467.730469 520h-460.328125c-4.707032 0-8.519532-3.8125-8.519532-8.523438v-98.449218c0-59.039063 34.226563-112.078125 87.199219-135.105469 4.300781-1.894531 9.335938.09375 11.21875 4.421875 1.878907 4.308594-.101562 9.339844-4.414062 11.210938-46.75 20.324218-76.957031 67.21875-76.957031 119.472656v89.921875h443.277343v-89.921875c0-52.253906-30.203125-99.148438-76.953125-119.472656-4.316406-1.871094-6.292968-6.902344-4.414062-11.210938 1.871094-4.316406 6.894531-6.3125 11.21875-4.421875 52.96875 23.027344 87.199218 76.066406 87.199218 135.105469v98.449218c0 4.710938-3.820312 8.523438-8.527343 8.523438zm0 0"/><path d="m374.765625 508.671875c-4.707031 0-8.527344-3.8125-8.527344-8.527344v-50.75c0-4.714843 3.820313-8.527343 8.527344-8.527343s8.527344 3.8125 8.527344 8.527343v50.75c0 4.714844-3.820313 8.527344-8.527344 8.527344zm0 0"/><path d="m101.175781 511.476562c-4.707031 0-8.523437-3.8125-8.523437-8.527343v-51.148438c0-4.710937 3.816406-8.519531 8.523437-8.519531s8.523438 3.808594 8.523438 8.519531v51.148438c0 4.714843-3.816407 8.527343-8.523438 8.527343zm0 0"/><path d="m374.757812 364.941406c-1.285156 0-2.582031-.289062-3.804687-.902344l-23.246094-11.617187c-4.207031-2.105469-5.914062-7.230469-3.808593-11.4375 2.101562-4.210937 7.21875-5.90625 11.4375-3.816406l15.726562 7.867187 12.058594-23.25-39.277344-24.730468c-3.980469-2.511719-5.179688-7.777344-2.671875-11.765626 2.507813-3.984374 7.765625-5.175781 11.757813-2.667968l45.914062 28.914062c3.75 2.355469 5.0625 7.207032 3.023438 11.132813l-19.535157 37.671875c-1.511719 2.921875-4.488281 4.601562-7.574219 4.601562zm0 0"/><path d="m84.242188 364.941406c-1.398438 0-2.789063-.339844-4.042969-1.023437-2.074219-1.113281-3.589844-3.039063-4.195313-5.3125l-8.636718-32.480469c-.941407-3.519531.46875-7.257812 3.507812-9.28125l51.148438-34.097656c3.910156-2.613282 9.199218-1.554688 11.816406 2.363281 2.609375 3.921875 1.558594 9.207031-2.359375 11.824219l-46.070313 30.707031 4.742188 17.820313 26.261718-8.746094c4.484376-1.488282 9.296876.925781 10.785157 5.386718 1.484375 4.472657-.929688 9.296876-5.390625 10.777344l-34.867188 11.625c-.878906.296875-1.789062.4375-2.699218.4375zm0 0"/><path d="m235.308594 434.671875c-.082032 0-.171875 0-.261719 0-3.335937-.109375-6.316406-2.15625-7.601563-5.246094l-28.425781-68.105469c-.902343-2.148437-.878906-4.578124.058594-6.707031l16.621094-37.785156c1.441406-3.25 4.792969-5.214844 8.277343-5.078125l23.425782 1.296875c2.824218.148437 5.382812 1.699219 6.84375 4.121094l21.914062 36.488281c1.492188 2.476562 1.621094 5.550781.335938 8.152344l-33.539063 68.101562c-1.433593 2.921875-4.402343 4.761719-7.648437 4.761719zm-19.148438-76.539063 19.792969 47.417969 23.199219-47.101562-17.199219-28.640625-13.019531-.710938zm0 0"/><path d="m322.472656 136.394531h-185.9375c-4.707031 0-8.523437-3.816406-8.523437-8.527343v-37.144532c0-3.757812 2.457031-7.074218 6.058593-8.15625 63.105469-19.070312 127.320313-19.0625 190.855469-.007812 3.597657 1.082031 6.070313 4.402344 6.070313 8.164062v37.144532c-.003906 4.710937-3.816406 8.527343-8.523438 8.527343zm-177.414062-17.050781h168.886718v-22.21875c-56.246093-15.722656-112.996093-15.753906-168.886718-.007812zm0 0"/><path d="m235.308594 516.015625c-2.847656 0-5.507813-1.425781-7.089844-3.796875l-92.96875-139.453125c-2.253906-3.378906-1.804688-7.882813 1.070312-10.753906l7.890626-7.902344-9.957032-29.863281c-1.210937-3.640625.164063-7.65625 3.363282-9.789063l34.859374-23.242187c2.078126-1.378906 4.667969-1.789063 7.070313-1.105469 2.402344.691406 4.390625 2.398437 5.417969 4.667969l50.34375 110.765625 50.347656-110.765625c1.03125-2.269532 3.015625-3.976563 5.421875-4.667969 2.414063-.683594 4.984375-.273437 7.066406 1.105469l34.859375 23.242187c3.199219 2.132813 4.574219 6.148438 3.359375 9.789063l-9.957031 29.863281 7.894531 7.902344c2.871094 2.871093 3.320313 7.375 1.066407 10.753906l-92.964844 139.453125c-1.582032 2.371094-4.238282 3.796875-7.09375 3.796875zm-81.996094-146.890625 82 122.996094 82.003906-122.996094-6.679687-6.679688c-2.28125-2.28125-3.078125-5.664062-2.0625-8.726562l9.558593-28.6875-21.101562-14.070312-53.957031 118.710937c-1.378907 3.039063-4.417969 4.996094-7.761719 4.996094-3.339844 0-6.375-1.957031-7.757812-4.996094l-53.953126-118.710937-21.109374 14.070312 9.5625 28.6875c1.023437 3.0625.222656 6.445312-2.058594 8.726562zm0 0"/><path d="m235.308594 330.078125c-17.511719 0-31.757813-14.253906-31.757813-31.765625 0-17.515625 14.246094-31.757812 31.757813-31.757812 17.515625 0 31.769531 14.242187 31.769531 31.757812 0 17.511719-14.253906 31.765625-31.769531 31.765625zm0-46.476563c-8.109375 0-14.710938 6.597657-14.710938 14.707032 0 8.121094 6.605469 14.71875 14.710938 14.71875 8.121094 0 14.722656-6.601563 14.722656-14.71875 0-8.109375-6.601562-14.707032-14.722656-14.707032zm0 0"/></svg>